# xmcd
#
# Track frame offsets:
#	150
#	14665
#	37608
#	59793
#	79572
#	106974
#	118782
#	133040
#	154807
#	176087
#	193752
#	218990
#
# Disc length: 3160 seconds
#
# Revision: 1
# Processed by: cddbd v1.5.1PL0 Copyright (c) Steve Scherf et al.
# Submitted via: audiograbber 1.83.01
#
DISCID=a80c560c
DTITLE=Eugene 'Hideaway' Bridges - Coming Home
DYEAR=2005
DGENRE=Blues
TTITLE0=I'm Going Back
TTITLE1=Giving Up On Love
TTITLE2=In Your Arms Tonight
TTITLE3=Coming Home
TTITLE4=I Wish Someone Would Have Told Me
TTITLE5=Love Me Right
TTITLE6=Railroad Line
TTITLE7=How Can I Win
TTITLE8=I Need You
TTITLE9=You're The One
TTITLE10=Real Hero
TTITLE11=I Woke Up This Morning
EXTD=
EXTT0=
EXTT1=
EXTT2=
EXTT3=
EXTT4=
EXTT5=
EXTT6=
EXTT7=
EXTT8=
EXTT9=
EXTT10=
EXTT11=
PLAYORDER=
